<?xml version="1.0" encoding="UTF-8"?>
<!-- Generator: visioncortex VTracer -->
<svg id="svg" version="1.1" xmlns="http://www.w3.org/2000/svg" style="display: block;" viewBox="0 0 224 224"><path d="M0 0 C73.92 0 147.84 0 224 0 C224 73.92 224 147.84 224 224 C150.08 224 76.16 224 0 224 C0 150.08 0 76.16 0 0 Z " transform="translate(0,0)" style="fill: #FEC554;"/><path d="M0 0 C2.359375 1.65234375 2.359375 1.65234375 4.75 3.9375 C5.60980469 4.7521875 6.46960938 5.566875 7.35546875 6.40625 C8.66451172 7.69015625 8.66451172 7.69015625 10 9 C11.29357422 10.25296875 11.29357422 10.25296875 12.61328125 11.53125 C19.76998335 18.56239592 19.76998335 18.56239592 20.5 23.125 C19.22990953 32.96820116 5.89265911 42.25217259 -0.96484375 49.09765625 C-2.32587513 50.45936258 -3.68675815 51.82121722 -5.04750061 53.18321228 C-7.88933955 56.02651919 -10.73296282 58.86802599 -13.57788086 61.70825195 C-17.20678592 65.33146031 -20.8311822 68.95914043 -24.45424557 72.58818913 C-27.2604179 75.39799146 -30.06898799 78.2053874 -32.87826729 81.01208305 C-34.21491246 82.3480657 -35.55082784 83.68477894 -36.88596916 85.02226448 C-49.51363912 97.66724208 -49.51363912 97.66724208 -55.43624878 102.6427002 C-57.65786731 104.57101357 -59.6471143 106.69387072 -61.66381836 108.83203125 C-72.29746084 120.0364589 -87.53403417 130.48992554 -103.578125 131.09765625 C-104.90070313 131.08025391 -104.90070313 131.08025391 -106.25 131.0625 C-107.14203125 131.05347656 -108.0340625 131.04445312 -108.953125 131.03515625 C-109.96632812 131.01775391 -109.96632812 131.01775391 -111 131 C-111.58168902 120.91739028 -108.80134531 112.0831351 -104.5 103.0625 C-104.22285156 102.45535156 -103.94570312 101.84820312 -103.66015625 101.22265625 C-96.29120337 86.54590363 -82.02184163 74.72525437 -70.56640625 63.30078125 C-68.79779905 61.53082413 -67.02948861 59.76057044 -65.26145935 57.99003601 C-61.58094346 54.30659122 -57.89688382 50.6267391 -54.21020508 46.94946289 C-49.95477681 42.70435998 -45.70608377 38.45263968 -41.46129566 34.19690067 C-37.35398485 30.07942161 -33.24107227 25.96758057 -29.12574577 21.85811424 C-27.38312916 20.11683128 -25.6419956 18.37406282 -23.90237617 16.62978554 C-21.48081494 14.20315731 -19.05295735 11.78301119 -16.62329102 9.36450195 C-15.54869629 8.28383453 -15.54869629 8.28383453 -14.45239258 7.18133545 C-13.78965836 6.52424088 -13.12692413 5.8671463 -12.44410706 5.19013977 C-11.87213372 4.61892049 -11.30016039 4.04770121 -10.71085453 3.45917225 C-7.3609661 0.60208291 -4.41102962 -0.64271137 0 0 Z " transform="translate(167,43)" style="fill: #FEF1D3;"/><path d="M0 0 C0.80052292 -0.00073013 1.60104584 -0.00146027 2.42582703 -0.00221252 C5.06152026 0.0012601 7.69542759 0.04010361 10.33081055 0.0793457 C12.16211481 0.08867504 13.99343159 0.09579058 15.82475281 0.1007843 C20.63700007 0.11984469 25.44848877 0.16893712 30.26043701 0.2243042 C35.17376444 0.27551744 40.08721483 0.29830277 45.00073242 0.32348633 C54.63583072 0.37705687 64.27036685 0.46235801 73.9050293 0.56762695 C74.4675293 2.50512695 74.4675293 2.50512695 74.9050293 4.56762695 C73.10514531 6.36751094 70.65503053 5.687557 68.25947571 5.69204712 C67.44955673 5.68845184 66.63963776 5.68485657 65.80517578 5.68115234 C64.95646912 5.68129837 64.10776245 5.6814444 63.2333374 5.68159485 C60.41424039 5.68089544 57.59520859 5.67310173 54.77612305 5.6652832 C52.82699113 5.66341912 50.87785875 5.66199517 48.9287262 5.66099548 C43.78796098 5.6571695 38.64722382 5.64733854 33.50646973 5.6362915 C28.26497782 5.6260791 23.0234814 5.62149823 17.78198242 5.61645508 C7.48965236 5.60571634 -2.80265684 5.58863897 -13.0949707 5.56762695 C-9.118592 0.65310244 -6.07420074 -0.14582591 0 0 Z " transform="translate(112.094970703125,153.432373046875)" style="fill: #FAB038;"/><path d="M0 0 C23.43 0 46.86 0 71 0 C68 4 68 4 65.05769348 4.48101807 C63.85634262 4.47213562 62.65499176 4.46325317 61.41723633 4.45410156 C60.75355545 4.45468567 60.08987457 4.45526978 59.40608215 4.45587158 C57.21419819 4.45308663 55.02367734 4.42197875 52.83203125 4.390625 C51.31174971 4.38316399 49.79145854 4.37747039 48.27116394 4.37347412 C44.27110204 4.35820654 40.27162176 4.31891582 36.27178955 4.2746582 C32.18973662 4.23372927 28.10758963 4.21546824 24.02539062 4.1953125 C16.01666027 4.15242197 8.0084025 4.08415786 0 4 C0 2.68 0 1.36 0 0 Z " transform="translate(69,63)" style="fill: #FAB23E;"/><path d="M0 0 C1.56047445 0.00015913 3.12095416 0.00585397 4.68139648 0.01586914 C5.91115456 0.01799156 5.91115456 0.01799156 7.16575623 0.02015686 C9.79470406 0.0257725 12.42356797 0.0383276 15.05249023 0.05102539 C16.8304838 0.05603838 18.60847869 0.06060163 20.38647461 0.06469727 C24.75434569 0.07574701 29.12215371 0.09302208 33.48999023 0.11352539 C34.05249023 2.05102539 34.05249023 2.05102539 34.48999023 4.11352539 C33.48999023 5.11352539 33.48999023 5.11352539 29.70458984 5.22705078 C28.01716294 5.22689162 26.32973119 5.22119456 24.64233398 5.21118164 C23.31269371 5.20905922 23.31269371 5.20905922 21.95619202 5.20689392 C19.11325769 5.20127755 16.27040092 5.1887223 13.42749023 5.17602539 C11.50496533 5.1710125 9.58243919 5.16644923 7.65991211 5.16235352 C2.93657474 5.1513028 -1.78670434 5.13402722 -6.51000977 5.11352539 C-4.0998865 0.13260397 -4.0998865 0.13260397 0 0 Z " transform="translate(152.510009765625,107.886474609375)" style="fill: #FAB039;"/><path d="M0 0 C2.875 2.0625 2.875 2.0625 5 5 C5.06700571 8.88633136 4.88788161 11.01698822 2.25 13.9375 C-0.54629833 15.25797421 -1.94511866 15.59607441 -5 15 C-7.875 12.9375 -7.875 12.9375 -10 10 C-10.06700571 6.11366864 -9.88788161 3.98301178 -7.25 1.0625 C-4.45370167 -0.25797421 -3.05488134 -0.59607441 0 0 Z " transform="translate(47,149)" style="fill: #FAB13B;"/><path d="M0 0 C2.94786693 1.31878257 4.5081161 2.4057806 6.375 5.0625 C6.375 8.67925826 5.7431968 10.53066018 3.6875 13.5 C1.375 15.0625 1.375 15.0625 -1.625 15.0625 C-5.03551575 13.92566142 -6.52416862 12.97134345 -8.625 10.0625 C-9.25 7.625 -9.25 7.625 -8.625 5.0625 C-3.98127316 0.09479222 -3.98127316 0.09479222 0 0 Z " transform="translate(45.625,102.9375)" style="fill: #FAB23F;"/><path d="M0 0 C2.5 2.1875 2.5 2.1875 4 5 C4 8.31195977 3.24393477 9.67765762 1.25 12.3125 C-1 14 -1 14 -3.5 14.5 C-6.90524375 13.81895125 -8.02547983 12.8520847 -10 10 C-10.42519574 6.53769185 -10.63902633 4.1652833 -8.9375 1.0625 C-5.79665674 -0.65989792 -3.50181214 -0.49148241 0 0 Z " transform="translate(48,58)" style="fill: #FAB340;"/><path d="M0 0 C0 8.30361451 -13.94499748 18.16822969 -19.64355469 23.88378906 C-21.63419385 25.88423917 -23.61391522 27.89511349 -25.59375 29.90625 C-26.86652913 31.18555118 -28.13994431 32.46421995 -29.4140625 33.7421875 C-30.00063629 34.34110809 -30.58721008 34.94002869 -31.19155884 35.55709839 C-34.26592435 38.61491804 -36.72895665 40.75473672 -41 42 C-36.5021065 36.60809603 -31.73873458 31.60608316 -26.7578125 26.66015625 C-25.98944061 25.89319931 -25.22106873 25.12624237 -24.42941284 24.33604431 C-21.99696491 21.9091526 -19.56104678 19.48577873 -17.125 17.0625 C-15.46591448 15.40843514 -13.80705798 13.75414055 -12.1484375 12.09960938 C-8.10160291 8.06374567 -4.05192047 4.03075723 0 0 Z " transform="translate(141,62)" style="fill: #FEEBBA;"/><path d="M0 0 C1.5631897 0.00785522 1.5631897 0.00785522 3.15795898 0.01586914 C4.28266602 0.0190918 5.40737305 0.02231445 6.56616211 0.02563477 C7.75016602 0.03401367 8.93416992 0.04239258 10.15405273 0.05102539 C11.34192383 0.05553711 12.52979492 0.06004883 13.75366211 0.06469727 C16.69967499 0.07652864 19.64558954 0.09301252 22.59155273 0.11352539 C21.26342773 2.59399414 21.26342773 2.59399414 18.59155273 5.11352539 C14.99740127 5.75860993 11.47858611 5.58342031 7.84155273 5.42602539 C6.85799805 5.4034668 5.87444336 5.3809082 4.86108398 5.35766602 C2.43635803 5.29881344 0.0147329 5.2166597 -2.40844727 5.11352539 C-2.97094727 3.17602539 -2.97094727 3.17602539 -3.40844727 1.11352539 C-2.40844727 0.11352539 -2.40844727 0.11352539 0 0 Z " transform="translate(72.408447265625,107.886474609375)" style="fill: #FAB23E;"/><path d="M0 0 C0.66 0.33 1.32 0.66 2 1 C-7.24 10.24 -16.48 19.48 -26 29 C-26 26 -26 26 -24.57885742 24.27001953 C-23.92763916 23.64724121 -23.2764209 23.02446289 -22.60546875 22.3828125 C-21.89712891 21.69316406 -21.18878906 21.00351563 -20.45898438 20.29296875 C-19.70939453 19.57753906 -18.95980469 18.86210938 -18.1875 18.125 C-11.8255895 12.17948977 -11.8255895 12.17948977 -7 5 C-4.95320755 2.59724364 -2.95607279 1.14428624 0 0 Z " transform="translate(103,102)" style="fill: #FEF9EA;"/><path d="M0 0 C-2.05883563 1.6013166 -4.06487484 3.03632991 -6.34375 4.3125 C-9.2502053 6.15895396 -11.41672363 8.22020792 -13.8125 10.6875 C-14.99779297 11.89986328 -14.99779297 11.89986328 -16.20703125 13.13671875 C-17.09455078 14.05904297 -17.09455078 14.05904297 -18 15 C-18.99 14.67 -19.98 14.34 -21 14 C-19.0894422 12.03536981 -17.17204686 10.07833599 -15.25 8.125 C-14.71117187 7.56941406 -14.17234375 7.01382813 -13.6171875 6.44140625 C-9.28323645 2.05460214 -6.41770705 -0.35653928 0 0 Z " transform="translate(167,43)" style="fill: #FFEBBC;"/><path d="M0 0 C1.65 0 3.3 0 5 0 C5 1.65 5 3.3 5 5 C3.35 5 1.7 5 0 5 C0 3.35 0 1.7 0 0 Z " transform="translate(42,154)" style="fill: #FEC351;"/><path d="M0 0 C1.32 0 2.64 0 4 0 C4 1.65 4 3.3 4 5 C2.35 4.67 0.7 4.34 -1 4 C-0.67 2.68 -0.34 1.36 0 0 Z " transform="translate(43,108)" style="fill: #FEC758;"/><path d="M0 0 C1.98 0.495 1.98 0.495 4 1 C4 2.32 4 3.64 4 5 C2.35 5 0.7 5 -1 5 C-0.67 3.35 -0.34 1.7 0 0 Z " transform="translate(43,62)" style="fill: #FEC85C;"/><path d="M0 0 C1.24546405 2.49092811 0.7767578 3.41080733 0 6 C0.99 5.67 1.98 5.34 3 5 C1.92598892 7.91517292 1.22189824 9.77810176 -1 12 C-1.02687279 10.18757948 -1.04633715 8.37504767 -1.0625 6.5625 C-1.07410156 5.55316406 -1.08570313 4.54382813 -1.09765625 3.50390625 C-1 1 -1 1 0 0 Z " transform="translate(58,161)" style="fill: #FFFBF1;"/></svg>